<?xml version="1.0" encoding="utf-8"?>
<!-- Generator: Adobe Illustrator 16.0.0, SVG Export Plug-In . SVG Version: 6.00 Build 0)  -->
<!DOCTYPE svg PUBLIC "-//W3C//DTD SVG 1.1//EN" "http://www.w3.org/Graphics/SVG/1.1/DTD/svg11.dtd">
<svg version="1.1" id="Layer_1" xmlns="http://www.w3.org/2000/svg" xmlns:xlink="http://www.w3.org/1999/xlink" x="0px" y="0px"
	 width="128px" height="128px" viewBox="0 0 128 128" enable-background="new 0 0 128 128" xml:space="preserve">
<rect fill="#30235A" width="128" height="128"/>
<g>
	<path fill="#D8338C" d="M106.875,52.25c0,0-4.375-25.75-23.625-31.75c-30.5-8.5-53.708,20.708-58.5,29.25S20.896,64.854,22,70.5
		c0.8,4.094,5.703,15.326,17.007,24.863c-0.012-11.424-0.014-23.346,0.048-32.784c0.059-8.921,3.171-16.667,9.931-22.67
		c4.432-3.935,9.629-6.328,15.57-7.11c6.123-0.807,11.973,0.046,17.455,2.816c5.039,2.546,9.104,6.244,11.979,11.177
		c2.562,4.396,4.213,9.085,4.15,14.224c-0.002,0.209,0.002,9.031,0.002,9.031L94,70l-0.023-4c0.023-3,0.037-7.492-1.854-12.315
		c-3.471-9.19-10.072-14.753-19.863-16.323c-7.102-1.139-13.531,0.641-19.07,5.115c-4.912,3.968-8.117,9.099-8.983,15.505
		c-0.265,1.957-0.399,3.936-0.404,5.906c-0.028,10.052,0.068,23.133,0.137,35.217c3.194,2.18,6.781,4.189,10.812,5.895
		c0.223,0.078,0.441,0.15,0.664,0.227c0.045-11.27-0.028-37.183,0.037-45.932c0.045-6.055,4.927-10.991,10.676-12.018
		c4.354-0.777,8.191,0.468,11.411,3.283c2.206,1.929,3.933,4.511,4.008,7.479C81.791,67.688,82,69.348,82,79l0,0v0.004
		c0-0.001,0-0.002,0-0.004c-2,0-3,0-5,0c0,0,0-0.692,0-1.221c0-8.217,0.129-8.434,0.093-16.65c-0.013-2.803-0.776-5.323-2.907-7.264
		c-2.127-1.936-5.621-2.978-8.766-1.642c-3.4,1.444-5.472,4.308-5.473,7.639c0,8.944,0.117,36.728-0.037,46.778
		c17.357,4.906,30.834,1.98,41.09-13.516C112.25,76.125,106.875,52.25,106.875,52.25z"/>
	<path fill="#D8338C" d="M43.938,99.105c-1.759-1.199-3.397-2.449-4.918-3.731C40.541,96.656,42.18,97.906,43.938,99.105z"/>
</g>
</svg>
