<?xml version="1.0" encoding="utf-8"?>
<!-- Generator: Adobe Illustrator 16.0.0, SVG Export Plug-In . SVG Version: 6.00 Build 0)  -->
<!DOCTYPE svg PUBLIC "-//W3C//DTD SVG 1.1//EN" "http://www.w3.org/Graphics/SVG/1.1/DTD/svg11.dtd">
<svg version="1.1" id="Layer_1" xmlns="http://www.w3.org/2000/svg" xmlns:xlink="http://www.w3.org/1999/xlink" x="0px" y="0px"
	 width="20px" height="19px" viewBox="0 0 20 19" enable-background="new 0 0 20 19" xml:space="preserve">
<g>
	<path fill="#FFFFFF" d="M18.773,6.933c0,0-0.907-5.336-4.896-6.58C7.557-1.408,2.747,4.644,1.754,6.415
		c-0.993,1.77-0.799,3.129-0.57,4.298c0.166,0.85,1.181,3.178,3.524,5.154c-0.002-2.369-0.002-4.84,0.01-6.794
		c0.012-1.849,0.658-3.454,2.059-4.698c0.917-0.816,1.995-1.312,3.227-1.474c1.269-0.167,2.48,0.01,3.617,0.584
		c1.044,0.527,1.76,1.294,2.355,2.315c0.531,0.911,1.134,1.884,0.734,2.947c0,0.044,0,1.872,0,1.872l-0.731-0.01l0.058-0.828
		c0.005-0.622,0.038-1.552-0.354-2.552c-0.719-1.905-2.07-3.058-4.099-3.383C10.113,3.61,8.788,3.979,7.64,4.907
		C6.622,5.729,5.961,6.792,5.782,8.12C5.728,8.525,5.701,8.936,5.7,9.345c-0.005,2.083,0.016,4.792,0.029,7.298
		c0.663,0.451,1.406,0.867,2.241,1.219c0.047,0.02,0.092,0.033,0.139,0.051c0.009-2.338-0.006-7.707,0.008-9.52
		c0.01-1.255,1.021-2.278,2.212-2.49c0.903-0.162,1.697,0.097,2.364,0.68c0.458,0.4,0.966,0.935,0.981,1.549
		c0.051,2.001,0.245,2.345,0.245,4.343l0,0v0.002v-0.041c-0.798,0-1.197,0-1.197,0s0-0.104,0-0.213c0-1.703-0.042-1.748-0.05-3.45
		c-0.002-0.581-0.198-1.103-0.638-1.505c-0.441-0.401-1.183-0.617-1.834-0.34C9.495,7.226,9.057,7.819,9.057,8.51
		c0,1.854,0.021,7.611-0.012,9.693c3.597,1.018,6.387,0.41,8.513-2.801C19.89,11.881,18.773,6.933,18.773,6.933z"/>
	<path fill="#FFFFFF" d="M5.731,16.643c-0.364-0.248-0.705-0.508-1.02-0.773C5.026,16.135,5.366,16.395,5.731,16.643z"/>
</g>
</svg>
